<svg id="eye-close-line" xmlns="http://www.w3.org/2000/svg" width="24" height="24" viewBox="0 0 24 24">
  <path id="Path_5" data-name="Path 5" d="M0,0H24V24H0Z" fill="none"/>
  <path id="Path_6" data-name="Path 6" d="M9.342,18.782l-1.931-.518L8.2,15.325a10.988,10.988,0,0,1-3.237-1.872L2.808,15.607,1.393,14.192l2.154-2.153a10.957,10.957,0,0,1-2.371-5.07L3.144,6.61a9,9,0,0,0,17.712,0l1.968.358a10.957,10.957,0,0,1-2.37,5.071l2.153,2.153-1.415,1.415-2.153-2.154A10.988,10.988,0,0,1,15.8,15.325l.787,2.94-1.931.517-.788-2.94a11.072,11.072,0,0,1-3.74,0l-.788,2.94Z" transform="translate(0 0)" fill="#1577e7"/>
</svg>
